<?xml version="1.0" standalone="no"?>
<!DOCTYPE svg PUBLIC "-//W3C//DTD SVG 20010904//EN"
 "http://www.w3.org/TR/2001/REC-SVG-20010904/DTD/svg10.dtd">
<svg version="1.0" xmlns="http://www.w3.org/2000/svg"
 width="658.000000pt" height="659.000000pt" viewBox="0 0 658.000000 659.000000"
 preserveAspectRatio="xMidYMid meet">

<g transform="translate(0.000000,659.000000) scale(0.100000,-0.100000)"
fill="#FFFFFF" stroke="none">
<path d="M2870 4534 l0 -966 23 6 c12 3 59 13 104 22 l82 17 3 71 3 71 643 3
642 2 0 -190 0 -190 105 0 105 0 2 188 3 187 643 3 642 2 0 -488 0 -489 28
-39 c53 -73 115 -186 148 -267 l33 -82 1 1553 0 1552 -1605 0 -1605 0 0 -966z
m1500 91 l0 -625 -645 0 -645 0 0 625 0 625 645 0 645 0 0 -625z m1500 0 l0
-625 -642 2 -643 3 -3 623 -2 622 645 0 645 0 0 -625z"/>
<path d="M3200 3549 c-254 -21 -528 -106 -749 -232 -272 -156 -538 -421 -684
-680 -26 -46 -47 -87 -47 -90 0 -4 16 -7 35 -7 56 0 112 34 143 87 47 80 166
235 233 304 316 322 745 498 1219 499 69 0 164 -5 210 -10 98 -12 311 -63 385
-92 44 -18 63 -19 168 -13 64 4 117 11 117 15 0 13 -172 91 -290 130 -146 49
-288 78 -443 90 -136 11 -161 11 -297 -1z"/>
<path d="M1848 3280 c-9 -16 -31 -38 -49 -49 l-32 -20 35 -17 c20 -9 42 -28
49 -41 l13 -24 19 26 c11 14 33 33 49 41 l30 16 -30 18 c-17 11 -38 33 -47 50
-8 16 -17 30 -18 30 -1 0 -10 -14 -19 -30z"/>
<path d="M4770 3287 c0 -29 -30 -33 -38 -5 -4 15 -15 18 -68 18 -61 0 -64 -1
-64 -25 0 -18 -6 -26 -22 -29 -13 -3 -158 -10 -323 -16 -165 -6 -344 -13 -397
-17 -90 -5 -98 -4 -98 12 0 16 -8 17 -96 12 -53 -3 -98 -8 -100 -10 -3 -3 -2
-39 2 -81 l7 -76 71 0 c74 0 116 16 116 45 0 8 4 17 10 20 5 3 128 10 272 15
145 5 329 12 411 16 131 6 147 5 147 -10 0 -23 118 -24 126 -1 4 8 14 15 24
15 22 0 155 -135 257 -262 l77 -96 104 28 c57 16 106 31 109 33 3 3 -26 63
-63 134 -80 149 -80 149 -58 157 12 4 49 -26 135 -108 89 -86 128 -117 153
-121 23 -5 45 -20 70 -51 20 -24 45 -44 55 -44 34 0 194 -204 263 -335 69
-132 91 -215 92 -345 1 -91 -4 -131 -22 -195 -34 -118 -84 -206 -156 -273
-130 -121 -281 -156 -465 -107 -44 11 -52 11 -92 -10 -24 -12 -44 -26 -44 -31
0 -14 129 -54 215 -65 180 -24 362 44 485 183 58 66 128 209 150 308 24 107
23 273 -4 373 -41 155 -152 349 -280 488 -32 35 -65 78 -74 96 -9 17 -35 42
-57 54 -22 13 -40 30 -40 39 0 18 -70 90 -87 90 -6 0 -14 7 -17 16 -3 8 -11
12 -17 9 -17 -11 -119 98 -119 126 0 48 -7 49 -287 49 l-263 0 0 -23z m308
-169 c2 -11 -8 -23 -27 -33 -44 -22 -38 -33 16 -37 45 -3 49 -6 85 -58 20 -30
37 -59 37 -63 1 -6 -59 -37 -72 -37 -4 0 -80 94 -140 173 -54 71 -51 79 30 75
54 -2 68 -6 71 -20z"/>
<path d="M2820 3262 l0 -37 336 -23 c305 -21 389 -23 323 -8 -41 10 -627 106
-643 106 -12 0 -16 -10 -16 -38z"/>
<path d="M2991 3123 c-100 -2 -170 -8 -178 -14 -7 -7 -13 -22 -13 -35 0 -31
-7 -31 335 15 l280 39 -130 -1 c-71 -1 -204 -3 -294 -4z"/>
<path d="M3120 3020 c-256 -61 -326 -80 -328 -94 -7 -34 127 -8 418 81 151 47
277 86 279 89 12 12 -75 -6 -369 -76z"/>
<path d="M4478 3073 l-58 -4 127 -122 c69 -67 158 -160 198 -208 l73 -85 78
-17 c43 -9 80 -15 82 -12 12 12 -155 220 -287 357 -82 86 -97 98 -125 96 -17
-1 -57 -3 -88 -5z"/>
<path d="M4370 2871 l0 -130 58 -16 c31 -9 70 -21 86 -26 61 -19 66 -15 66 55
l0 65 -89 82 c-50 45 -97 86 -105 91 -14 8 -16 -6 -16 -121z"/>
<path d="M2915 2849 c-158 -18 -291 -41 -372 -65 -97 -28 -450 -177 -612 -259
-109 -54 -113 -55 -234 -65 -323 -26 -566 -83 -836 -196 -162 -68 -425 -215
-460 -258 -8 -9 4 -51 45 -159 l55 -147 -27 -35 c-34 -45 -28 -86 20 -136 l35
-36 223 -5 223 -5 38 -36 c21 -21 43 -37 48 -37 5 0 9 -4 9 -10 0 -6 -121 -11
-327 -12 l-328 -3 -3 -33 c-2 -18 2 -40 9 -48 10 -12 375 -14 2689 -14 1472 0
2745 3 2828 7 l152 6 0 43 0 44 -627 2 -626 3 54 43 c30 23 67 59 84 80 18 24
54 50 95 69 90 43 148 88 165 126 7 17 43 126 80 240 64 205 65 209 48 237
-16 28 -16 33 9 122 15 51 26 94 24 95 -1 1 -101 25 -221 53 -311 72 -619 150
-915 230 -486 132 -660 160 -1015 165 -137 2 -286 -1 -330 -6z m635 -129 c168
-22 360 -62 695 -146 318 -80 564 -138 842 -199 65 -15 125 -28 134 -31 30 -8
9 -42 -69 -113 -43 -40 -72 -73 -68 -80 4 -7 39 -11 87 -11 61 0 79 -3 79 -14
0 -7 -18 -72 -39 -142 -22 -71 -45 -148 -51 -171 -8 -31 -19 -47 -40 -58 -16
-8 -31 -15 -35 -15 -3 0 -5 35 -5 78 0 152 -48 279 -137 363 -80 75 -128 94
-243 94 -119 0 -178 -25 -263 -110 -104 -104 -152 -246 -145 -432 l4 -103 -31
-5 c-16 -2 -302 -7 -635 -11 -333 -4 -742 -9 -910 -13 -168 -3 -307 -5 -309
-4 -2 1 4 29 13 61 9 32 16 95 16 139 0 189 -94 347 -250 422 -50 23 -66 26
-170 26 -110 0 -118 -1 -182 -33 -149 -73 -240 -218 -255 -404 -5 -67 6 -167
23 -213 5 -11 -85 -12 -503 -8 -279 2 -514 7 -522 9 -10 3 -11 7 -1 19 10 12
51 15 211 17 l199 3 -50 83 -49 82 67 0 67 0 46 -78 c45 -76 46 -77 85 -75 77
5 174 25 174 36 0 7 -34 54 -76 104 l-75 93 -312 2 c-267 3 -312 5 -312 18 0
10 21 18 75 27 93 15 295 72 318 89 19 14 -21 12 -233 -11 -66 -8 -122 -12
-124 -9 -8 7 30 31 149 93 276 143 591 234 930 266 80 8 327 19 550 25 511 12
539 14 592 38 24 10 99 57 168 103 69 47 155 100 192 119 38 19 68 39 68 44 0
8 -570 1 -690 -9 -71 -6 -36 6 105 36 170 37 653 41 895 9z m1234 -594 c74
-31 149 -124 170 -211 4 -16 7 -60 7 -96 -1 -164 -112 -301 -255 -316 -47 -5
-64 -2 -110 21 -64 31 -99 69 -135 146 -35 74 -37 219 -4 292 28 61 98 136
148 159 48 22 133 24 179 5z m-2637 -47 c50 -24 103 -83 135 -148 32 -65 32
-214 1 -283 -47 -101 -145 -174 -248 -185 -112 -12 -218 55 -277 175 -29 58
-33 76 -33 147 0 67 5 90 28 140 79 168 237 230 394 154z m2128 -613 c23 -23
52 -49 66 -58 23 -16 16 -17 -161 -17 -175 0 -184 1 -160 17 14 9 43 35 66 58
31 34 48 43 80 46 53 4 61 1 109 -46z m-714 -6 c22 -21 49 -42 60 -45 66 -21
-34 -25 -688 -25 -612 1 -705 3 -689 15 10 8 35 29 55 47 l36 33 205 5 c113 3
379 7 592 8 l388 2 41 -40z m-1923 6 c15 -8 37 -28 50 -45 l23 -31 -111 0
c-67 0 -110 4 -110 10 0 6 6 10 13 10 6 0 32 16 56 35 51 41 45 39 79 21z"/>
<path d="M3355 2645 c-83 -18 -153 -47 -234 -97 -123 -76 -257 -190 -239 -203
4 -3 420 13 633 24 126 7 193 7 201 0 17 -14 94 -133 94 -145 0 -10 -216 -404
-230 -417 -8 -9 -57 -16 -635 -92 -192 -26 -354 -51 -360 -57 -7 -7 45 -9 175
-4 562 19 758 27 874 36 l129 10 169 77 c93 42 171 80 174 85 8 13 -44 9 -187
-13 -190 -29 -239 -33 -239 -22 0 5 23 48 52 94 111 181 159 265 165 287 4 16
-8 46 -42 103 -25 45 -45 82 -43 83 2 1 39 10 82 20 44 10 123 33 175 52 169
58 185 66 139 77 -344 74 -618 118 -736 116 -31 0 -84 -7 -117 -14z"/>
<path d="M3085 2229 c-335 -12 -648 -28 -653 -34 -3 -2 1 -18 8 -35 10 -24 18
-30 43 -30 65 0 953 91 972 100 24 10 -57 10 -370 -1z"/>
<path d="M1306 2126 c-165 -28 -301 -56 -303 -62 -2 -6 14 -27 36 -47 32 -29
47 -36 68 -32 16 3 70 9 122 14 82 8 96 12 115 34 26 32 85 67 111 67 15 0 4
-15 -44 -64 -66 -67 -71 -86 -20 -86 23 0 52 21 144 106 63 59 115 111 115
115 0 14 -25 10 -344 -45z"/>
<path d="M4648 2100 c-85 -26 -148 -99 -174 -202 -36 -141 20 -279 138 -339
114 -58 268 27 308 171 25 90 6 206 -47 283 -47 68 -154 110 -225 87z m51 -77
c-1 -27 -4 -61 -8 -78 -6 -24 -8 -16 -13 40 -6 71 -4 85 13 85 5 0 8 -21 8
-47z m196 -144 c-6 -8 -88 -29 -112 -28 -10 0 9 13 42 29 41 19 62 24 67 17 4
-6 5 -14 3 -18z m-335 1 c21 -11 41 -24 45 -30 8 -13 8 -13 -53 5 -32 10 -52
21 -52 30 0 20 13 19 60 -5z m152 -17 c22 -20 23 -51 2 -81 -28 -40 -65 -25
-79 31 -5 20 -2 33 10 47 22 24 43 25 67 3z m-102 -192 c-17 -34 -35 -59 -40
-56 -6 3 -10 10 -10 16 0 13 71 111 77 105 2 -2 -10 -32 -27 -65z m170 18 c31
-36 40 -53 32 -61 -7 -7 -21 6 -46 45 -35 54 -41 67 -32 67 2 0 23 -23 46 -51z"/>
<path d="M1965 2071 c-84 -21 -165 -100 -190 -184 -55 -186 51 -369 223 -384
151 -14 276 116 276 287 0 85 -21 143 -73 202 -55 63 -161 98 -236 79z m60
-98 c-10 -94 -19 -100 -26 -18 -6 78 -4 85 17 85 13 0 14 -11 9 -67z m-98
-159 c-5 -6 -115 21 -124 30 -3 3 -3 12 1 21 5 13 15 11 67 -15 33 -17 59 -34
56 -36z m307 51 c6 -18 5 -18 -80 -40 -87 -21 -89 -18 -9 20 83 40 81 39 89
20z m-188 -37 c20 -23 20 -53 2 -75 -8 -10 6 -31 51 -79 34 -36 60 -71 58 -77
-8 -25 -24 -14 -60 42 -47 73 -64 88 -102 93 -25 2 -31 9 -39 40 -8 31 -6 41
9 58 24 26 57 25 81 -2z m-118 -192 c-33 -67 -44 -78 -54 -52 -5 14 74 131 83
122 2 -2 -11 -33 -29 -70z"/>
<path d="M6061 1855 c-43 -127 -137 -256 -242 -334 l-62 -46 154 -5 c85 -3
157 -2 162 1 4 3 6 100 5 215 -3 192 -4 206 -17 169z"/>
<path d="M5310 1691 c-5 -11 -10 -22 -10 -25 0 -9 101 -26 154 -26 61 0 177
33 196 55 11 13 -8 15 -158 15 -159 0 -172 -1 -182 -19z"/>
<path d="M5047 1493 c-19 -19 -5 -33 33 -33 48 0 52 14 9 29 -38 13 -34 13
-42 4z"/>
</g>
</svg>
