<?xml version="1.0" standalone="no"?>
<!DOCTYPE svg PUBLIC "-//W3C//DTD SVG 20010904//EN"
 "http://www.w3.org/TR/2001/REC-SVG-20010904/DTD/svg10.dtd">
<svg version="1.0" xmlns="http://www.w3.org/2000/svg"
 width="512.000000pt" height="512.000000pt" viewBox="0 0 512.000000 512.000000"
 preserveAspectRatio="xMidYMid meet">
<metadata>
Created by potrace 1.16, written by Peter Selinger 2001-2019
</metadata>
<g transform="translate(0.000000,512.000000) scale(0.100000,-0.100000)"
fill="#FFFFFF" stroke="none">
<path d="M2455 3820 c-333 -39 -632 -216 -833 -491 -80 -111 -145 -261 -177
-412 -19 -85 -19 -97 -1 -97 9 0 18 21 25 64 75 428 444 797 895 892 575 122
1176 -253 1332 -831 24 -90 27 -118 28 -275 1 -96 -3 -199 -8 -229 -5 -35 -5
-51 2 -47 20 12 35 171 29 312 -9 227 -59 387 -178 569 -177 272 -467 472
-766 529 -102 19 -260 27 -348 16z"/>
<path d="M3190 3743 c244 -174 384 -311 498 -486 24 -38 46 -66 49 -63 11 11
-133 213 -207 290 -95 100 -255 224 -340 265 l-25 12 25 -18z"/>
<path d="M2433 3656 c-88 -17 -182 -46 -189 -58 -13 -21 10 -19 98 7 167 49
363 46 526 -7 70 -22 92 -19 42 7 -99 51 -340 77 -477 51z"/>
<path d="M2187 3594 c-12 -12 -8 -42 6 -47 24 -9 44 10 31 30 -12 20 -27 26
-37 17z"/>
<path d="M1507 3552 c-46 -51 19 -115 67 -66 21 21 20 40 -4 64 -25 25 -42 25
-63 2z m50 -28 c3 -8 1 -20 -6 -27 -14 -14 -47 15 -37 32 10 16 36 13 43 -5z"/>
<path d="M2390 3432 c-64 -18 -180 -66 -180 -75 0 -3 38 8 84 24 156 54 345
55 482 4 100 -38 180 -91 268 -177 43 -43 83 -78 88 -78 16 0 7 19 -29 62 -86
99 -213 188 -326 229 -88 31 -294 37 -387 11z"/>
<path d="M3159 3426 c-9 -20 -9 -29 1 -41 28 -34 87 5 64 43 -18 28 -52 27
-65 -2z m43 -11 c0 -5 -5 -11 -11 -13 -6 -2 -11 4 -11 13 0 9 5 15 11 13 6 -2
11 -8 11 -13z"/>
<path d="M1326 3246 c-64 -115 -121 -280 -139 -408 -10 -68 9 -48 21 21 18
109 60 228 117 338 58 112 59 153 1 49z"/>
<path d="M2438 3254 c-32 -7 -77 -23 -100 -35 -101 -51 -236 -180 -218 -209 6
-9 28 7 81 61 44 44 99 88 137 107 l62 33 0 -131 c0 -72 5 -140 10 -151 10
-17 23 -19 155 -19 132 0 145 2 155 19 5 11 10 76 10 145 0 69 3 126 6 126 4
0 32 -14 63 -32 118 -68 227 -207 272 -348 10 -30 18 -46 18 -35 1 11 -12 56
-27 101 -97 276 -361 432 -624 368z m230 -30 c21 -6 22 -10 22 -145 l0 -140
-122 3 -123 3 -3 137 -3 137 28 7 c15 3 33 8 38 10 13 5 133 -4 163 -12z"/>
<path d="M1715 3186 c-58 -92 -125 -263 -125 -322 0 -47 27 -25 39 34 18 78
65 189 112 262 37 57 42 80 18 80 -5 0 -25 -24 -44 -54z"/>
<path d="M3700 3166 c0 -4 11 -32 24 -64 69 -165 98 -310 98 -492 0 -119 -20
-281 -37 -298 -2 -3 -37 25 -76 62 -76 72 -115 94 -219 119 -214 53 -494 76
-707 59 -184 -15 -451 -55 -520 -78 -53 -17 -180 -119 -325 -262 -63 -61 -70
-66 -121 -70 l-54 -4 5 171 c4 154 3 171 -12 171 -14 0 -16 -13 -16 -92 0 -51
-3 -129 -6 -174 l-7 -81 -86 -11 c-47 -7 -102 -15 -122 -18 l-35 -6 -26 83
c-37 119 -50 188 -57 313 -4 74 -10 111 -18 114 -16 5 -18 -163 -3 -255 9 -54
47 -199 65 -244 5 -13 -9 -18 -77 -28 -254 -38 -429 -93 -494 -156 -43 -41
-44 -43 -44 -106 1 -35 7 -77 14 -94 12 -29 11 -31 -26 -57 -21 -16 -38 -36
-38 -46 0 -27 88 -132 123 -147 18 -7 67 -16 110 -20 74 -6 78 -8 83 -33 8
-38 54 -103 91 -128 l32 -21 -112 -7 c-62 -3 -155 -9 -207 -13 l-95 -7 110
-12 c419 -47 756 -68 1085 -69 l335 0 75 28 c141 54 186 65 295 76 151 14 466
29 875 41 370 11 640 28 640 42 0 4 -35 8 -79 8 -43 0 -92 3 -109 6 l-30 6 29
54 c15 30 31 70 35 89 5 27 11 35 27 35 30 0 187 49 187 59 0 4 16 26 35 48
39 46 45 86 16 105 -17 10 -19 20 -14 84 6 72 5 74 -36 144 -23 38 -52 77 -64
85 -13 8 -86 31 -162 50 -77 20 -143 39 -146 43 -4 4 -27 31 -51 60 l-45 52
14 52 c42 163 37 390 -12 584 -27 106 -84 245 -102 252 -7 2 -13 1 -13 -2z
m-522 -656 c147 -16 266 -38 352 -66 67 -21 90 -34 164 -99 47 -42 114 -110
148 -152 96 -117 95 -116 218 -157 133 -44 205 -79 218 -103 10 -20 -1 -140
-15 -153 -4 -5 -44 -12 -88 -17 l-80 -8 -20 29 c-68 99 -213 100 -291 2 l-29
-36 -107 0 -108 0 0 98 c0 107 -19 191 -48 213 -15 12 -16 12 -5 -2 33 -41 59
-270 35 -305 -6 -10 -188 -22 -638 -41 l-152 -6 -7 156 c-10 209 -2 237 65
237 29 0 41 -6 54 -26 21 -31 57 -29 71 4 l10 22 265 0 c199 0 269 -3 279 -12
11 -10 13 -10 7 0 -6 9 15 12 88 12 113 0 146 10 146 43 0 27 -71 133 -87 130
-6 -1 -19 8 -29 20 l-19 22 23 -19 c12 -11 22 -15 22 -9 0 5 -34 42 -75 82
-60 59 -78 71 -96 66 -15 -5 -19 -4 -15 4 5 8 -5 10 -36 6 -33 -4 -38 -3 -23
5 15 7 6 9 -35 6 -43 -4 -48 -3 -25 4 22 7 9 8 -50 6 -48 -2 -64 -1 -40 3 30
5 8 9 -86 15 -186 12 -185 12 -293 -186 -26 -49 -51 -88 -57 -88 -5 0 -8 -3
-7 -7 1 -5 -14 -37 -33 -73 l-34 -65 -5 -180 -5 -180 -82 -3 c-62 -2 -83 -6
-83 -16 0 -11 18 -13 86 -8 l86 5 -7 -49 c-4 -27 -13 -65 -19 -84 -11 -35 -12
-35 -77 -40 l-66 -5 -11 78 c-20 136 -79 213 -181 236 -42 9 -120 2 -166 -15
-81 -30 -156 -120 -201 -239 -14 -38 -31 -73 -37 -77 -19 -12 -399 -9 -656 4
l-234 12 -25 38 c-14 21 -23 40 -21 42 2 2 70 1 151 -2 124 -4 148 -7 153 -21
3 -9 15 -27 26 -41 l21 -25 -21 36 c-12 20 -21 39 -21 41 0 3 137 7 306 11
315 6 334 8 334 48 0 16 -7 17 -47 14 -147 -13 -181 -13 -219 0 -30 11 -120
14 -414 15 -212 1 -384 6 -395 11 -13 6 129 7 390 4 256 -4 464 -2 554 5 l143
11 26 32 c78 95 164 145 261 154 78 7 139 -10 193 -54 l43 -35 -41 40 c-106
103 -298 76 -426 -60 l-58 -61 -124 -5 -123 -5 -8 49 c-4 27 -13 64 -20 81
-13 31 -12 33 13 51 125 89 412 168 747 207 156 18 199 28 85 19 -110 -8 -329
-42 -450 -69 -187 -43 -295 -84 -387 -146 l-42 -29 -395 0 c-218 0 -396 4
-396 8 0 16 56 61 101 81 45 20 279 81 309 81 8 0 -10 -11 -41 -24 -66 -27
-121 -60 -140 -83 -8 -9 24 4 71 29 47 25 103 51 125 58 34 11 37 14 20 21
-15 5 -11 7 15 6 19 -1 88 9 153 21 230 43 350 53 725 59 254 4 379 2 421 -6
32 -6 65 -9 73 -6 9 4 43 69 77 145 103 234 106 229 -117 232 l-157 2 165 6
c91 3 146 7 123 8 -24 1 -43 7 -43 12 0 13 302 13 428 0z m-715 -37 c-7 -2
-19 -2 -25 0 -7 3 -2 5 12 5 14 0 19 -2 13 -5z m635 0 c-16 -2 -40 -2 -55 0
-16 2 -3 4 27 4 30 0 43 -2 28 -4z m-104 -13 c-32 -13 -63 -55 -133 -180 -63
-111 -101 -171 -101 -155 0 4 29 55 63 114 35 58 76 127 91 153 28 49 60 78
86 77 10 0 8 -3 -6 -9z m-555 -46 c-72 -51 -131 -84 -152 -84 -27 0 -112 -53
-147 -92 -24 -26 -48 -42 -75 -48 -50 -12 -95 -13 -95 -2 0 11 230 216 260
232 28 15 158 38 224 39 l50 1 -65 -46z m1101 -50 l45 -48 -60 54 c-33 29 -62
56 -65 58 -3 3 4 0 15 -6 11 -6 40 -32 65 -58z m-143 34 c-3 -8 -6 -5 -6 6 -1
11 2 17 5 13 3 -3 4 -12 1 -19z m10 -50 c-3 -7 -5 -2 -5 12 0 14 2 19 5 13 2
-7 2 -19 0 -25z m31 -138 c0 -14 -6 2 -14 35 -7 33 -13 67 -12 75 1 23 26 -82
26 -110z m203 33 c13 -16 12 -17 -3 -4 -17 13 -22 21 -14 21 2 0 10 -8 17 -17z
m-633 -30 c3 -30 1 -33 -25 -34 -28 -1 -28 -1 -3 -8 29 -8 19 -17 -33 -26 -35
-7 -54 7 -24 18 6 3 -7 6 -30 6 -41 1 -43 3 -43 31 0 39 22 50 95 47 60 -2 60
-2 63 -34z m-590 -10 c-10 -2 -28 -2 -40 0 -13 2 -5 4 17 4 22 1 32 -1 23 -4z
m1029 -70 c-3 -10 -5 -2 -5 17 0 19 2 27 5 18 2 -10 2 -26 0 -35z m-1410 30
c-20 -2 -52 -2 -70 0 -17 2 0 4 38 4 39 0 53 -2 32 -4z m356 0 c-34 -2 -93 -2
-130 0 -37 2 -9 3 62 3 72 0 102 -1 68 -3z m1275 -30 c-10 -2 -28 -2 -40 0
-13 2 -5 4 17 4 22 1 32 -1 23 -4z m-165 -10 c-7 -2 -19 -2 -25 0 -7 3 -2 5
12 5 14 0 19 -2 13 -5z m622 -53 c46 -13 78 -28 93 -45 35 -41 26 -47 -26 -21
-27 14 -91 37 -143 52 -92 26 -119 38 -119 54 0 9 78 -7 195 -40z m-3211 -266
c12 -30 7 -84 -8 -84 -18 0 -39 53 -31 79 8 25 30 28 39 5z m80 0 c3 -9 6 -31
6 -50 0 -27 -4 -34 -19 -34 -26 0 -47 51 -31 79 13 25 35 27 44 5z m359 9
c-62 -2 -164 -2 -225 0 -62 1 -12 3 112 3 124 0 174 -2 113 -3z m207 -12 c23
-44 1 -101 -35 -88 -18 8 -29 49 -21 82 8 30 41 34 56 6z m112 -6 c15 -34 0
-80 -27 -80 -26 0 -50 44 -41 78 9 37 52 38 68 2z m-327 -16 l120 -6 -131 0
c-104 -1 -131 2 -131 13 0 7 5 10 11 6 6 -4 65 -10 131 -13z m-197 -6 c-21 -2
-57 -2 -80 0 -24 2 -7 4 37 4 44 0 63 -2 43 -4z m2821 -14 c34 -32 51 -81 51
-148 0 -73 -12 -106 -53 -148 -75 -79 -167 -1 -167 139 1 128 100 221 169 157z
m-2821 -16 c-21 -2 -55 -2 -75 0 -21 2 -4 4 37 4 41 0 58 -2 38 -4z m260 0
c-32 -2 -84 -2 -115 0 -32 2 -6 3 57 3 63 0 89 -1 58 -3z m2730 -30 l-3 -38
73 4 c73 3 74 3 62 -19 -13 -24 -54 -44 -111 -55 l-37 -7 -11 64 c-15 85 -14
88 10 88 18 0 20 -5 17 -37z m-424 -50 c-33 -77 -34 -78 -76 -85 -42 -6 -148
-10 -148 -5 0 1 9 26 20 55 11 29 20 61 20 72 0 24 19 29 130 33 47 2 86 4 86
5 1 1 -13 -33 -32 -75z m606 67 c0 -5 -10 -10 -22 -10 -13 0 -47 -3 -75 -6
-45 -6 -53 -4 -53 10 0 13 12 16 75 16 43 0 75 -4 75 -10z m-2962 -17 c-60 -2
-156 -2 -215 0 -60 1 -11 3 107 3 118 0 167 -2 108 -3z m2162 -3 c0 -21 -42
-119 -56 -131 -10 -8 -130 -19 -382 -34 -202 -13 -368 -21 -370 -20 -1 1 3 36
9 79 10 65 15 77 33 81 22 4 566 31 694 34 40 0 72 -3 72 -9z m-1190 -30 c120
-61 136 -264 29 -371 -49 -49 -92 -58 -148 -30 -113 58 -145 251 -59 355 54
65 111 80 178 46z m-630 -50 c17 -11 -223 -11 -630 0 -245 6 -237 6 180 8 267
1 441 -2 450 -8z m-800 -54 c0 -20 25 -37 45 -30 10 4 15 14 12 25 -10 37 28
19 56 -28 l28 -46 -68 7 c-71 7 -82 13 -114 58 l-20 28 30 0 c20 0 31 -5 31
-14z m40 4 c0 -5 -5 -10 -11 -10 -5 0 -7 5 -4 10 3 6 8 10 11 10 2 0 4 -4 4
-10z m2708 -56 l-26 -26 -468 -29 c-258 -15 -502 -30 -541 -34 -73 -6 -73 -6
-73 19 0 31 -25 28 520 61 239 14 442 28 450 29 8 2 49 4 90 5 l75 1 -27 -26z
m26 -116 l28 -41 -93 6 c-50 4 -166 7 -256 7 l-165 0 30 25 c26 21 40 25 103
26 41 1 115 4 164 8 164 14 157 15 189 -31z m-739 -12 c17 -12 14 -14 -31 -20
-27 -3 -112 -8 -189 -11 -77 -3 -164 -8 -192 -11 -42 -4 -52 -3 -48 8 4 11 57
18 218 29 117 9 215 17 218 17 3 1 14 -4 24 -12z m-994 -63 c4 -10 8 -21 8
-24 1 -3 -61 -9 -136 -13 -76 -3 -182 -9 -235 -13 l-98 -6 37 39 37 39 190 -2
c174 -1 191 -3 197 -20z"/>
<path d="M2849 2471 c8 -14 11 -40 8 -64 -4 -27 -2 -36 4 -26 15 24 10 85 -8
100 -15 13 -15 12 -4 -10z"/>
<path d="M2816 2295 c-9 -26 -7 -32 5 -12 6 10 9 21 6 23 -2 3 -7 -2 -11 -11z"/>
<path d="M2278 2103 c12 -2 30 -2 40 0 9 3 -1 5 -23 4 -22 0 -30 -2 -17 -4z"/>
<path d="M2025 2079 c-238 -32 -447 -94 -520 -153 -11 -9 9 -3 45 14 132 60
375 117 635 149 54 7 60 9 25 9 -25 0 -108 -9 -185 -19z"/>
<path d="M3350 2020 c0 -23 20 -30 85 -30 56 0 69 7 59 35 -10 25 -144 20
-144 -5z"/>
<path d="M1330 1981 c-30 -16 -64 -39 -75 -52 l-20 -24 21 18 c12 10 50 33 85
52 35 19 60 34 54 34 -5 0 -35 -13 -65 -28z"/>
<path d="M1487 1978 c-32 -11 -56 -22 -54 -24 4 -5 127 36 127 42 0 6 -11 4
-73 -18z"/>
<path d="M3861 1918 c-46 -13 -78 -35 -103 -72 -21 -30 -20 -30 18 6 49 46 80
58 153 58 46 0 66 -5 97 -26 l39 -26 -23 25 c-22 24 -90 48 -129 46 -10 0 -33
-5 -52 -11z"/>
<path d="M4217 1913 c-4 -3 -7 -15 -7 -25 0 -12 7 -18 24 -18 33 0 44 20 21
37 -21 15 -29 16 -38 6z"/>
<path d="M1801 1781 c-8 -5 -11 -16 -8 -25 8 -20 60 -22 76 -3 22 27 -33 50
-68 28z"/>
<path d="M1500 1561 c0 -6 5 -22 12 -36 10 -23 16 -25 75 -25 l64 0 -3 33 -3
32 -72 3 c-44 2 -73 -1 -73 -7z m118 -13 c22 -22 13 -28 -38 -28 -43 0 -50 3
-50 20 0 16 7 20 38 20 21 0 43 -5 50 -12z"/>
<path d="M2164 2308 l-19 -23 23 19 c21 18 27 26 19 26 -2 0 -12 -10 -23 -22z"/>
<path d="M3880 1747 c-30 -15 -64 -77 -50 -91 6 -6 17 -3 30 9 22 20 26 14 10
-15 -7 -13 -7 -21 0 -25 6 -4 13 7 16 25 7 32 24 52 24 26 0 -19 38 -46 56
-39 8 3 14 17 15 32 0 23 1 24 9 6 7 -17 9 -17 9 -3 1 23 -57 88 -78 88 -9 0
-27 -6 -41 -13z"/>
<path d="M3813 1579 c8 -94 37 -105 53 -21 7 37 -16 82 -43 82 -13 0 -15 -9
-10 -61z"/>
<path d="M3890 1615 c-7 -9 -10 -25 -6 -41 5 -19 12 -25 29 -22 12 2 23 11 25
23 l4 20 -15 -20 c-12 -15 -18 -17 -28 -8 -18 18 -3 46 22 40 16 -4 18 -3 8 9
-15 18 -23 18 -39 -1z"/>
<path d="M3968 1616 c-18 -13 -23 -52 -12 -93 13 -47 37 -14 50 68 7 42 -5 50
-38 25z"/>
<path d="M3865 1510 c-14 -28 -14 -31 5 -50 11 -11 24 -20 29 -20 11 0 61 40
61 48 -1 16 -27 39 -52 45 -23 6 -30 3 -43 -23z"/>
<path d="M2199 1653 c-30 -18 -56 -58 -69 -105 -9 -30 -9 -30 23 -24 18 3 42
17 55 32 14 16 22 20 22 11 0 -23 -40 -67 -60 -67 -37 0 -50 -12 -50 -44 0
-38 30 -105 58 -129 20 -19 21 -18 33 22 11 37 10 46 -10 86 -12 25 -30 46
-39 46 -9 1 -1 4 18 8 42 7 64 46 74 129 6 46 5 52 -11 52 -10 0 -30 -8 -44
-17z"/>
<path d="M2271 1623 c0 -42 16 -108 18 -76 1 10 7 10 25 1 51 -23 91 28 51 66
-18 18 -19 19 -1 6 19 -14 20 -14 7 3 -17 21 -63 47 -86 47 -11 0 -15 -11 -14
-47z"/>
<path d="M2371 1537 c-7 -10 -19 -17 -25 -17 -6 0 -18 -4 -26 -10 -12 -7 -12
-12 4 -29 18 -20 18 -21 -5 -40 -13 -11 -29 -20 -35 -21 -12 0 -54 -92 -54
-116 0 -22 73 -18 104 7 21 17 24 24 15 40 -5 11 -21 25 -34 31 -14 6 -22 15
-19 20 3 5 21 -2 39 -16 35 -27 51 -33 40 -16 -3 6 -2 10 4 10 6 0 7 7 4 17
-4 11 -3 14 6 9 9 -6 10 0 5 20 -4 15 -3 25 2 21 5 -3 9 15 10 39 0 24 -3 41
-7 39 -4 -3 -9 2 -11 11 -3 16 -4 16 -17 1z m-31 -211 c-8 -8 -26 -17 -40 -20
-19 -5 -17 -2 10 13 42 24 49 26 30 7z"/>
<path d="M2233 1496 c-17 -19 -19 -30 -13 -57 l8 -34 1 31 c1 18 7 34 16 38
18 7 20 -15 3 -33 -11 -11 -10 -13 5 -7 10 3 21 6 23 6 10 0 3 59 -9 69 -11 8
-19 5 -34 -13z"/>
<path d="M3355 3078 c-4 -9 0 -29 8 -45 29 -56 59 -173 65 -259 5 -56 12 -89
20 -92 17 -5 16 95 -2 190 -15 79 -48 173 -70 204 -13 17 -15 17 -21 2z"/>
<path d="M1876 3005 c-9 -26 -7 -32 5 -12 6 10 9 21 6 23 -2 3 -7 -2 -11 -11z"/>
<path d="M1856 2955 c-3 -9 -6 -22 -5 -28 0 -7 5 -1 10 12 5 13 8 26 5 28 -2
2 -6 -3 -10 -12z"/>
<path d="M1831 2864 c0 -11 3 -14 6 -6 3 7 2 16 -1 19 -3 4 -6 -2 -5 -13z"/>
<path d="M2365 2840 c-11 -4 -42 -32 -68 -63 -45 -53 -48 -55 -112 -62 l-65
-7 2 -71 c2 -68 2 -69 5 -16 l4 56 72 9 c70 9 72 10 109 58 55 74 69 78 222
74 121 -3 135 -5 176 -30 25 -14 58 -40 74 -57 28 -29 56 -41 56 -23 0 19 -99
103 -143 121 -41 18 -69 21 -180 20 -73 0 -141 -4 -152 -9z"/>
<path d="M1822 2815 c0 -16 2 -22 5 -12 2 9 2 23 0 30 -3 6 -5 -1 -5 -18z"/>
<path d="M1813 2700 c0 -47 2 -66 4 -42 2 23 2 61 0 85 -2 23 -4 4 -4 -43z"/>
<path d="M1106 2587 c-21 -46 27 -373 69 -473 21 -50 29 -38 11 14 -28 80 -57
239 -65 357 -4 76 -10 113 -15 102z"/>
<path d="M1822 2580 c0 -14 2 -19 5 -12 2 6 2 18 0 25 -3 6 -5 1 -5 -13z"/>
<path d="M1217 2470 c3 -47 9 -94 13 -105 10 -26 0 121 -10 160 -5 18 -6 -4
-3 -55z"/>
<path d="M1831 2534 c0 -11 3 -14 6 -6 3 7 2 16 -1 19 -3 4 -6 -2 -5 -13z"/>
<path d="M1571 2428 c13 -58 40 -141 49 -151 18 -20 19 17 1 75 -11 35 -22 75
-26 91 -3 15 -12 27 -19 27 -11 0 -12 -9 -5 -42z"/>
<path d="M1955 2300 c10 -11 20 -20 23 -20 3 0 -3 9 -13 20 -10 11 -20 20 -23
20 -3 0 3 -9 13 -20z"/>
</g>
</svg>